<svg width="11" height="23" viewBox="0 0 11 23" fill="none" xmlns="http://www.w3.org/2000/svg">
    <path
        d="M10.5232 18.0808L10.5115 14.0865H10.5089L10.5206 10.0947L10.5063 10.1025L10.5141 10.0895L7.0591 8.08773L10.5193 6.08208L10.5076 2.0877L10.5089 2.0851L6.94368 0L0 4.0113V12.1681L3.33696 14.0904L0.00389074 16.0088L0.015563 20.0044L3.59764 22.0986L3.60023 22.0934L10.5232 18.0808ZM10.2288 10.2653L7.22641 12.017L3.75586 10.0035L6.766 8.25834L10.2288 10.2653ZM6.94238 0.339919L10.2184 2.25701L3.73122 6.01826L0.438357 4.09726L6.94238 0.339919ZM0.293103 4.35122L3.58597 6.27222L3.59634 9.91105L0.293103 7.99656V4.35122ZM0.293103 11.9961V8.33518L7.07986 12.2722L7.06948 15.9254L3.70269 13.9614L3.6988 13.9588L3.63136 13.9197L0.2944 11.9974L0.293103 11.9961ZM0.306072 19.8338L0.295696 16.3487L3.58727 18.2684L3.59764 21.7587L0.306072 19.8351V19.8338ZM0.440951 16.0934L3.62877 14.2571L6.90996 16.1715L3.73382 18.0131L0.443545 16.0947L0.440951 16.0934Z"
        fill="#EFEBF5" />
</svg>